HIERARCHY
ROOT hip
{
	OFFSET 0.000000 0.000000 0.000000 
	CHANNELS 6 Xposition Yposition Zposition Xrotation Zrotation Yrotation
	JOINT abdomen
	{
		OFFSET 0.000000 3.402643 0.000000 
		CHANNELS 3 Xrotation Zrotation Yrotation
		JOINT chest
		{
			OFFSET 0.000000 8.438565 -0.680529 
			CHANNELS 3 Xrotation Zrotation Yrotation
			JOINT neck
			{
				OFFSET 0.000000 10.207942 -0.272212 
				CHANNELS 3 Xrotation Zrotation Yrotation
				JOINT head
				{
					OFFSET 0.000000 3.130431 0.000000 
					CHANNELS 3 Xrotation Zrotation Yrotation
					End Site
					{
						OFFSET 0.000000 3.130435 0.000000 
					}
				}
			}
			JOINT lCollar
			{
				OFFSET 3.470700 6.669187 -0.816635 
				CHANNELS 3 Yrotation Zrotation Xrotation
				JOINT lShldr
				{
					OFFSET 3.198488 0.000000 0.000000 
					CHANNELS 3 Zrotation Yrotation Xrotation
					JOINT lForeArm
					{
						OFFSET 10.139888 0.000000 0.000000 
						CHANNELS 3 Yrotation Zrotation Xrotation
						JOINT lHand
						{
							OFFSET 8.370511 0.000000 0.000000 
							CHANNELS 3 Zrotation Yrotation Xrotation
							End Site
							{
								OFFSET 4.083176 0.000000 0.000000 
							}
						}
					}
				}
			}
			JOINT rCollar
			{
				OFFSET -3.470700 6.669187 -0.816635 
				CHANNELS 3 Yrotation Zrotation Xrotation
				JOINT rShldr
				{
					OFFSET -3.198488 0.000000 0.000000 
					CHANNELS 3 Zrotation Yrotation Xrotation
					JOINT rForeArm
					{
						OFFSET -10.139888 0.000000 0.000000 
						CHANNELS 3 Yrotation Zrotation Xrotation
						JOINT rHand
						{
							OFFSET -8.370511 0.000000 0.000000 
							CHANNELS 3 Zrotation Yrotation Xrotation
							End Site
							{
								OFFSET -4.083176 0.000000 0.000000 
							}
						}
					}
				}
			}
		}
	}
	JOINT lThigh
	{
		OFFSET 5.308129 -1.633274 1.361059 
		CHANNELS 3 Xrotation Zrotation Yrotation
		JOINT lShin
		{
			OFFSET -2.041588 -20.007561 0.000000 
			CHANNELS 3 Xrotation Zrotation Yrotation
			JOINT lFoot
			{
				OFFSET 0.000000 -19.190928 -1.224953 
				CHANNELS 3 Xrotation Yrotation Zrotation
				End Site
				{
					OFFSET 0.000000 -2.449906 4.627600 
				}
			}
		}
	}
	JOINT rThigh
	{
		OFFSET -5.308129 -1.633274 1.361059 
		CHANNELS 3 Xrotation Zrotation Yrotation
		JOINT rShin
		{
			OFFSET 2.041588 -20.007561 0.000000 
			CHANNELS 3 Xrotation Zrotation Yrotation
			JOINT rFoot
			{
				OFFSET 0.000000 -19.190928 -1.224953 
				CHANNELS 3 Xrotation Yrotation Zrotation
				End Site
				{
					OFFSET 0.000000 -2.449906 4.627600 
				}
			}
		}
	}
}
MOTION
Frames: 15
Frame Time: 0.033333
-7.172533 44.939880 1.156127 0.947266 -0.312500 -70.498108 10.370376 -8.712459 -6.345483 -15.058595 16.474609 11.484375 -8.603516 0.000000 0.000000 49.394531 -24.707031 15.630687 2.000000 -2.000000 0.000000 -20.507813 -4.218750 9.266859 3.107486 -1.395561 2.444660 1.649248 -3.400840 -3.509154 -2.000000 2.000000 0.000000 25.781250 -1.669922 -80.859375 34.601536 0.744306 2.698627 -1.668799 3.381294 -3.509732 5.179745 7.240623 20.534546 4.442139 -4.025508 -0.456968 -5.350951 -1.230499 -0.001875 -0.888524 -13.817760 2.027677 22.582397 3.666946 1.656636 1.371711 -30.080488 0.035139 
-7.206499 45.110340 1.390838 1.601563 -0.439451 -66.836113 10.370376 -8.712459 -6.345483 -14.531250 16.416018 11.819168 -8.603516 0.000000 0.000000 50.673828 -23.642574 14.673820 2.000000 -2.000000 0.000000 -20.097656 -3.505859 17.157604 3.117252 -1.395561 2.444660 1.649248 -3.400840 -3.509154 -2.000000 2.000000 0.000000 26.816406 -2.294922 -81.133202 34.415977 0.754054 2.699214 -1.668799 3.381294 -3.509732 5.416044 7.877677 15.851394 2.044490 -4.055385 -0.282062 -4.308875 -0.276663 -0.000456 -1.044389 -13.396630 4.075752 19.183565 3.755153 1.464474 1.049776 -26.644405 0.007191 
-7.291448 45.279915 1.629088 2.304688 -0.458984 -62.607494 10.370376 -8.712459 -6.345483 -14.140625 16.181641 12.431640 -8.603516 0.000000 0.000000 52.207035 -22.099607 13.218985 2.000000 -2.000000 0.000000 -19.482422 -2.646484 26.112833 3.136783 -1.395561 2.444660 1.649248 -3.400840 -3.509154 -2.000000 2.000000 0.000000 28.164063 -3.105469 -81.348190 34.279266 0.754054 2.699214 -1.668799 3.381294 -3.509732 5.642468 8.573122 11.171868 -0.597756 -4.031731 -0.078721 -3.421258 0.235152 -0.018899 -1.238867 -12.893203 6.354686 15.358423 3.863510 1.220937 0.673632 -22.792345 0.036962 
-7.429296 45.414688 1.820730 2.919922 -0.439453 -58.300808 10.370376 -8.712459 -6.345483 -13.945313 15.751953 13.173829 -8.603516 0.000000 0.000000 53.710938 -20.263670 11.441931 2.000000 -2.000000 0.000000 -18.710938 -1.767578 35.146484 3.156314 -1.395561 2.444660 1.649248 -3.400840 -3.509154 -2.000000 2.000000 0.000000 29.580078 -3.964844 -81.445313 34.249966 0.754054 2.699214 -1.668799 3.381294 -3.509732 5.699600 9.352010 7.041356 -2.948710 -4.067700 0.114023 -3.029648 0.223257 0.017644 -1.395198 -12.387891 8.500566 11.372096 3.921726 0.917766 0.314086 -18.806442 0.050337 
-7.610560 45.507568 1.939342 3.417969 -0.361328 -54.082092 10.370376 -8.712459 -6.345483 -13.896484 15.175782 13.879511 -8.603516 0.000000 0.000000 55.058594 -18.232422 9.596555 2.000000 -2.000000 0.000000 -17.890625 -1.103516 43.857422 3.185611 -1.395561 2.444660 1.649248 -3.400840 -3.509154 -2.000000 2.000000 0.000000 30.908205 -4.775391 -81.397301 34.337852 0.754054 2.699214 -1.668799 3.381294 -3.509732 5.504699 10.093193 3.501576 -4.733734 -4.058064 0.254843 -3.221756 0.074621 0.020162 -1.532535 -11.892855 10.375630 7.214420 3.981266 0.648158 0.097444 -14.907916 0.064158 
-7.825767 45.572109 1.977889 3.837891 -0.253906 -49.873089 10.370376 -8.712459 -6.345483 -13.896484 14.511719 14.455571 -8.603516 0.000000 0.000000 56.152344 -16.064453 7.985579 2.000000 -2.000000 0.000000 -17.070311 -0.742188 52.314323 3.205142 -1.395561 2.444660 1.649248 -3.400840 -3.509154 -2.000000 2.000000 0.000000 32.099609 -5.498047 -81.163040 34.572239 0.744306 2.698626 -1.668799 3.381294 -3.509732 5.047250 10.786175 0.202291 -6.003562 -4.051477 0.308843 -3.856461 -0.083960 -0.024529 -1.629135 -11.382471 12.178968 2.957101 4.019285 0.348412 -0.113905 -10.960251 0.051930 
-8.075722 45.624626 1.934508 4.179688 -0.205078 -45.546906 10.370376 -8.712459 -6.345483 -13.759766 13.906252 14.904690 -8.603516 0.000000 0.000000 56.953125 -14.013672 6.774980 2.000000 -2.000000 0.000000 -16.376953 -0.664063 60.712772 3.234440 -1.395561 2.444660 1.649248 -3.400840 -3.509154 -2.000000 2.000000 0.000000 33.085938 -6.113281 -80.801819 34.914036 0.744306 2.698626 -1.668799 3.381294 -3.509732 4.306584 11.453115 -3.392120 -6.863053 -4.062466 0.373048 -4.715128 -0.124212 -0.031819 -1.795977 -10.906926 14.493665 -0.926242 4.030429 0.084440 -0.511122 -7.070092 0.020623 
-8.373158 45.669048 1.804443 4.462891 -0.146484 -41.084007 10.370376 -8.712459 -6.345483 -13.369142 13.535156 15.234375 -8.603516 0.000000 0.000000 57.412113 -12.529297 5.964680 2.000000 -2.000000 0.000000 -16.025391 -0.810547 69.160156 3.253971 -1.395561 2.444660 1.649248 -3.400840 -3.509154 -2.000000 2.000000 0.000000 33.671871 -6.455078 -80.419922 35.294689 0.733970 2.707784 -1.668799 3.381294 -3.509732 3.291072 12.117042 -7.815323 -7.422625 -4.048806 0.384426 -5.595054 -0.083179 -0.025633 -2.164989 -10.492144 17.794174 -3.560237 4.068948 -0.120299 -1.136526 -3.626529 -0.001718 
-8.734449 45.693722 1.581100 4.746094 -0.097656 -36.406246 10.370376 -8.712459 -6.345483 -12.666016 13.574220 15.412447 -8.603516 0.000000 0.000000 57.529297 -12.041014 5.468750 2.000000 -2.000000 0.000000 -16.132813 -1.093750 77.675781 3.293033 -1.395561 2.444660 1.649248 -3.400840 -3.509154 -2.000000 2.000000 0.000000 33.730469 -6.367188 -80.274513 35.577888 0.733970 2.707784 -1.668799 3.381294 -3.509732 1.953457 12.761248 -13.157857 -7.710636 -4.071635 0.387744 -6.328124 -0.000305 0.010533 -2.762216 -10.105197 21.811434 -4.226805 4.052534 -0.178088 -2.108289 -1.144502 0.046642 
-9.167746 45.681450 1.262087 5.136718 -0.068359 -31.533205 10.370376 -8.712459 -6.345483 -11.796875 14.082032 15.324643 -8.603516 0.000000 0.000000 57.402344 -12.626954 5.193177 2.000000 -2.000000 0.000000 -16.718750 -1.435547 86.230225 3.322330 -1.395561 2.444660 1.649248 -3.400840 -3.509154 -2.000000 2.000000 0.000000 33.212891 -5.791016 -80.489265 35.695076 0.733970 2.707784 -1.668799 3.381294 -3.509732 0.304196 13.266204 -18.635029 -7.924701 -4.062208 0.402822 -6.757796 0.013932 0.006244 -3.424032 -9.711761 25.220100 -3.326224 4.049599 -0.102133 -3.044298 0.127577 0.020640 
-9.666239 45.622475 0.855751 5.800781 -0.048828 -26.376951 10.370376 -8.712459 -6.345483 -11.093750 15.048828 14.921875 -8.603516 0.000000 0.000000 57.128906 -14.052734 5.085520 2.000000 -2.000000 0.000000 -17.724609 -1.835938 94.765312 3.361392 -1.395561 2.444660 1.649248 -3.400840 -3.509154 -2.000000 2.000000 0.000000 32.265625 -4.921875 -80.977402 35.724373 0.733970 2.707784 -1.668799 3.381294 -3.509732 -1.433547 13.530257 -22.017971 -8.423565 -4.043581 0.457515 -6.748031 0.011627 0.015894 -3.787766 -9.305717 26.084414 -2.253227 4.049841 -0.023271 -3.533704 0.409327 0.021863 
-10.211666 45.523643 0.386006 6.777344 -0.097656 -20.966812 10.370376 -8.712459 -6.345483 -10.800780 16.337893 14.201965 -8.603516 0.000000 0.000000 56.835941 -15.859373 5.016862 2.000000 -2.000000 0.000000 -18.994139 -2.363281 103.290611 3.380924 -1.395561 2.444660 1.649248 -3.400840 -3.509154 -2.000000 2.000000 0.000000 31.191404 -4.150392 -81.357422 35.899948 0.723633 2.716943 -1.668799 3.381294 -3.509732 -2.895369 13.536311 -20.321148 -9.427897 -4.054413 0.513395 -6.288693 -0.074253 -0.000918 -3.610015 -8.843223 23.406441 -2.436385 4.045868 -0.026964 -3.256394 0.191568 0.026154 
-10.783406 45.407349 -0.107271 8.007813 -0.283203 -15.293031 10.370376 -8.712459 -6.345483 -10.996094 17.753906 13.281252 -8.603516 0.000000 0.000000 56.582031 -17.519529 4.938468 2.000000 -2.000000 0.000000 -20.312500 -3.105469 111.806114 3.371158 -1.395561 2.444660 1.649248 -3.400840 -3.509154 -2.000000 2.000000 0.000000 30.341797 -3.867188 -81.240891 36.427292 0.723633 2.716943 -1.668799 3.381294 -3.509732 -3.825977 13.218648 -11.595722 -10.577899 -4.021530 0.614749 -5.584575 -0.132834 -0.004710 -2.830566 -8.357188 17.787783 -4.207654 4.072420 -0.177740 -2.313897 -0.043834 -0.028165 
-11.363634 45.299274 -0.574772 9.140625 -0.625000 -9.414169 10.370376 -8.712459 -6.345483 -11.591796 18.964844 12.298097 -8.603516 0.000000 0.000000 56.445316 -18.437498 4.791834 2.000000 -2.000000 0.000000 -21.435547 -4.179688 120.302017 3.322330 -1.395561 2.444660 1.649248 -3.400840 -3.509154 -2.000000 2.000000 0.000000 30.019527 -4.208984 -80.488281 37.296215 0.723045 2.726689 -1.668799 3.381294 -3.509732 -4.284770 12.550787 3.605702 -11.155210 -4.001463 0.713728 -4.616611 -0.149876 -0.042635 -1.678810 -7.830442 10.784266 -6.690413 4.048978 -0.330424 -1.282892 -0.135100 -0.000528 
-11.933969 45.213730 -0.970418 9.863281 -1.142578 -3.418164 10.370376 -8.712459 -6.345483 -12.373047 19.707031 11.292356 -8.603516 0.000000 0.000000 56.601563 -18.260382 4.559941 2.000000 -2.000000 0.000000 -22.080078 -5.585938 128.808594 3.224674 -1.395561 2.444660 1.649248 -3.400840 -3.509154 -2.000000 2.000000 0.000000 30.312500 -4.980468 -79.404297 38.262592 0.702372 2.745005 -1.668799 3.381294 -3.509732 -4.579885 11.684602 22.062836 -10.146133 -4.022747 0.621534 -3.593720 -0.006449 -0.023820 -0.399551 -7.222349 3.996204 -8.745934 4.042909 -0.520358 -0.574400 -0.052616 0.011140 
